<?xml version="1.0" encoding="UTF-8"?>
<svg version="1.1" xmlns="http://www.w3.org/2000/svg" width="512" height="512">
<path d="M0 0 C0.63502441 0.20898926 1.27004883 0.41797852 1.92431641 0.63330078 C26.22750431 8.80372532 46.03952993 26.9406195 57.8515625 49.54296875 C64.21408519 62.38387955 68.1906405 75.48161438 68.09765625 89.8984375 C68.09553383 91.15087753 68.09553383 91.15087753 68.09336853 92.42861938 C68.08780174 95.07745042 68.07525547 97.7261948 68.0625 100.375 C68.0574807 102.17838419 68.05291855 103.98176971 68.04882812 105.78515625 C68.0378432 110.19013721 68.02060163 114.59505394 68 119 C68.61530075 118.99111755 69.2306015 118.98223511 69.86454773 118.9730835 C76.27215276 118.88454729 82.67958385 118.82423956 89.08764648 118.78027344 C91.47866881 118.76016582 93.86964201 118.7328757 96.26049805 118.69824219 C99.69852831 118.64968849 103.13590804 118.62702226 106.57421875 118.609375 C107.64210129 118.58872986 108.70998383 118.56808472 109.81022644 118.54681396 C117.24432477 118.54456943 117.24432477 118.54456943 121.15161133 120.89941406 C123.58051424 123.65972058 123.9683631 124.58081102 124.25 128.3125 C123.98368917 132.24058469 123.43481646 133.95647943 121 137 C118.18943691 138.7005482 116.04799349 139.25837049 112.78222656 139.31884766 C111.5514035 139.34865219 111.5514035 139.34865219 110.29571533 139.37905884 C109.41953552 139.39061005 108.54335571 139.40216125 107.640625 139.4140625 C106.28405792 139.44311172 106.28405792 139.44311172 104.90008545 139.4727478 C102.01681901 139.53243831 99.13351242 139.57888686 96.25 139.625 C94.29295152 139.66318947 92.33591967 139.70224177 90.37890625 139.7421875 C85.58607289 139.83813125 80.79316085 139.92220127 76 140 C76.48550827 140.40847168 76.97101654 140.81694336 77.47123718 141.23779297 C78.10552139 141.77549316 78.7398056 142.31319336 79.39331055 142.8671875 C80.02319382 143.39940918 80.65307709 143.93163086 81.30204773 144.47998047 C83.18163388 146.1626 84.5317174 147.82764789 85.8125 150 C86.19019531 150.61875 86.56789063 151.2375 86.95703125 151.875 C91.14705481 160.41197685 91.3926083 170.82030065 89.3125 180.05078125 C85.45228276 190.3929466 78.7508904 197.43405216 68.75 202.03515625 C65.73094508 203.22834891 63.26377721 204 60 204 C60.03480469 204.83660156 60.06960938 205.67320312 60.10546875 206.53515625 C60.6356005 229.33082158 52.59542205 250.53450708 38 268 C42.97453844 275.93348874 48.14835928 283.71087949 53.4375 291.4375 C54.87426005 293.53998055 56.31045967 295.64284419 57.74609375 297.74609375 C58.45822021 298.7719458 59.17034668 299.79779785 59.90405273 300.85473633 C61.31536253 302.97260518 62.65085211 305.1427549 63.91040039 307.35424805 C67.08170918 312.76838978 69.24046467 316.42950671 75.50390625 318.08984375 C77.51622707 318.41985444 79.53705582 318.70103007 81.5625 318.9375 C83.71454207 319.2908349 85.86560268 319.65020104 88.015625 320.015625 C89.04880859 320.17869141 90.08199219 320.34175781 91.14648438 320.50976562 C120.00801597 325.4681807 147.69257842 346.70194866 164.5 370 C166.07230821 372.29203369 167.55542943 374.62563501 169 377 C169.38591309 377.63309082 169.77182617 378.26618164 170.16943359 378.91845703 C175.02261066 387.06835791 178.79481273 395.46889012 181.875 404.4375 C182.14916748 405.2219751 182.42333496 406.0064502 182.70581055 406.81469727 C193.07899732 438.88752157 188 476.21452416 188 508 C44.12 508 -99.76 508 -248 508 C-248 421.96785872 -248 421.96785872 -241.875 404.4375 C-241.42821899 403.13353271 -241.42821899 403.13353271 -240.97241211 401.80322266 C-234.70507392 384.21356791 -224.78382587 369.53581563 -212 356 C-211.26394531 355.18789063 -210.52789062 354.37578125 -209.76953125 353.5390625 C-191.48175351 334.1178714 -165.17055099 321.99389935 -139 318 C-137.33382751 317.95941664 -135.66574493 317.9445778 -134 318 C-133.72958893 317.4313623 -133.45917786 316.86272461 -133.18057251 316.27685547 C-131.95895543 313.92084133 -130.5899961 311.7733993 -129.11083984 309.5703125 C-128.5303891 308.7026123 -127.94993835 307.83491211 -127.35189819 306.94091797 C-126.41587265 305.54703857 -126.41587265 305.54703857 -125.4609375 304.125 C-124.14541837 302.15131819 -122.83032711 300.17735114 -121.515625 298.203125 C-119.44142657 295.09281225 -117.36454522 291.98443238 -115.28027344 288.88085938 C-113.26965253 285.88437952 -111.2706608 282.88042048 -109.2734375 279.875 C-108.33133926 278.48112061 -108.33133926 278.48112061 -107.37020874 277.05908203 C-106.79606232 276.19138184 -106.22191589 275.32368164 -105.63037109 274.4296875 C-105.12122162 273.66897949 -104.61207214 272.90827148 -104.0874939 272.12451172 C-102.69623116 269.80434008 -102.69623116 269.80434008 -103 266 C-104.45897649 263.68970926 -105.95637729 261.51505092 -107.5625 259.3125 C-119.22957973 242.51091101 -123.77934234 224.34949436 -123 204 C-124.27875 203.814375 -125.5575 203.62875 -126.875 203.4375 C-135.52109694 201.5040421 -143.15819863 195.34618139 -148 188 C-153.33759391 178.0456448 -154.6695526 167.8969219 -151.5625 156.9375 C-149.18238909 150.33182987 -144.98333866 145.82160759 -140 141 C-139.67 140.67 -139.34 140.34 -139 140 C-140.21582764 139.98541748 -141.43165527 139.97083496 -142.68432617 139.95581055 C-147.20399078 139.89774902 -151.72316127 139.8205164 -156.24243164 139.73754883 C-158.19677702 139.70433646 -160.15121747 139.67629305 -162.10571289 139.65356445 C-164.91854282 139.61995067 -167.73050447 139.56763146 -170.54296875 139.51171875 C-171.41398727 139.50532883 -172.2850058 139.4989389 -173.18241882 139.49235535 C-177.91334316 139.37822039 -181.18530184 139.10496558 -185 136 C-186.99788088 133.00317868 -187.35935228 132.05914854 -187.5 128.625 C-187.5515625 127.87476563 -187.603125 127.12453125 -187.65625 126.3515625 C-186.837273 123.41689493 -185.36700442 121.94296739 -183.01055908 120.0637207 C-178.87428825 117.8753558 -174.26119081 118.39851388 -169.6953125 118.51171875 C-168.61619598 118.51879349 -167.53707947 118.52586823 -166.42526245 118.53315735 C-162.99112552 118.56106338 -159.55864106 118.62379831 -156.125 118.6875 C-153.79169027 118.71258761 -151.4583549 118.73539996 -149.125 118.75585938 C-143.41610638 118.81087756 -137.70817127 118.89446684 -132 119 C-132.0314209 117.65760254 -132.0314209 117.65760254 -132.06347656 116.28808594 C-132.71574116 84.12896431 -129.98825459 55.57724656 -108 30 C-107.52046875 29.38769531 -107.0409375 28.77539062 -106.546875 28.14453125 C-95.64288918 14.45188239 -79.36099288 5.47562167 -63 0 C-61.77539062 -0.41507812 -60.55078125 -0.83015625 -59.2890625 -1.2578125 C-40.68932023 -6.85946165 -18.35292962 -6.20789295 0 0 Z " fill="#F9CCB4" transform="translate(286,4)"/>
<path d="M0 0 C0.66 0 1.32 0 2 0 C16.67708878 50.49062083 16.67708878 50.49062083 22.61645508 72.80639648 C25.36132601 83.11615901 28.27873316 93.33978336 31.4453125 103.52783203 C33.77307596 111.08392967 35.78071731 118.69828035 37.72631836 126.36035156 C39.75743661 134.27422008 42.11157425 142.06595788 44.53515625 149.8671875 C46.57425067 156.47385343 48.30039474 163.08497808 49.9140625 169.80859375 C51.20048327 174.953023 52.80214821 179.99990969 54.375 185.0625 C56.83227552 192.97476958 59.07899763 200.90902674 61.125 208.9375 C62.87548401 215.79923441 64.70152619 222.61447106 66.8125 229.375 C67.01955566 230.04136475 67.22661133 230.70772949 67.43994141 231.39428711 C68.26825693 234.44598685 68.26825693 234.44598685 70 237 C70.21914062 236.07703125 70.43828125 235.1540625 70.6640625 234.203125 C72.51546279 226.54088422 74.5624783 218.97382965 76.875 211.4375 C79.10332453 204.16760884 81.11774251 196.86693641 83 189.5 C85.05731049 181.45236428 87.3109893 173.4980817 89.75 165.55859375 C91.67064649 159.24646908 93.36588001 152.89179227 95 146.5 C97.05744315 138.45239684 99.31098762 130.49808716 101.75 122.55859375 C103.67064649 116.24646908 105.36588001 109.89179227 107 103.5 C109.05744315 95.45239684 111.31098762 87.49808716 113.75 79.55859375 C115.67064818 73.24646353 117.36576296 66.89176535 119 60.5 C121.03710161 52.53738568 123.24675814 44.65926363 125.6730957 36.80688477 C127.16735622 31.92264556 128.53907446 27.0208366 129.828125 22.078125 C130.29230835 20.30272339 130.29230835 20.30272339 130.76586914 18.49145508 C131.3704039 16.16027296 131.96625248 13.82681731 132.55249023 11.4909668 C132.82778564 10.43047119 133.10308105 9.36997559 133.38671875 8.27734375 C133.62608154 7.33109131 133.86544434 6.38483887 134.11206055 5.40991211 C135.03751918 2.89817107 135.96756082 1.69978729 138 0 C143.67403206 7.69869929 149.14133465 15.51663127 154.5 23.4375 C155.20769531 24.47970703 155.91539062 25.52191406 156.64453125 26.59570312 C157.34964844 27.63533203 158.05476563 28.67496094 158.78125 29.74609375 C159.48709229 30.7719458 160.19293457 31.79779785 160.92016602 32.85473633 C162.32196085 34.97462398 163.65041599 37.14462217 164.90600586 39.35424805 C168.07801054 44.76818802 170.24068675 48.42942428 176.50390625 50.08984375 C178.51622707 50.41985444 180.53705582 50.70103007 182.5625 50.9375 C184.71454207 51.2908349 186.86560268 51.65020104 189.015625 52.015625 C190.04880859 52.17869141 191.08199219 52.34175781 192.14648438 52.50976562 C221.00801597 57.4681807 248.69257842 78.70194866 265.5 102 C267.07230821 104.29203369 268.55542943 106.62563501 270 109 C270.57886963 109.94963623 270.57886963 109.94963623 271.16943359 110.91845703 C276.02261066 119.06835791 279.79481273 127.46889012 282.875 136.4375 C283.14916748 137.2219751 283.42333496 138.0064502 283.70581055 138.81469727 C294.07899732 170.88752157 289 208.21452416 289 240 C145.12 240 1.24 240 -147 240 C-147 153.96785872 -147 153.96785872 -140.875 136.4375 C-140.577146 135.56818848 -140.27929199 134.69887695 -139.97241211 133.80322266 C-133.70507392 116.21356791 -123.78382587 101.53581563 -111 88 C-110.26394531 87.18789063 -109.52789062 86.37578125 -108.76953125 85.5390625 C-90.48175351 66.1178714 -64.17055099 53.99389935 -38 50 C-36.33382751 49.95941664 -34.66574493 49.9445778 -33 50 C-32.72893433 49.43201691 -32.45786865 48.86403381 -32.17858887 48.27883911 C-30.96010355 45.92285895 -29.60080847 43.75388205 -28.14257812 41.53857422 C-27.56858276 40.66441864 -26.9945874 39.79026306 -26.40319824 38.88961792 C-25.78545532 37.95409088 -25.1677124 37.01856384 -24.53125 36.0546875 C-23.57708191 34.60535324 -23.57708191 34.60535324 -22.6036377 33.1267395 C-21.25980485 31.08686223 -19.91484716 29.04772561 -18.56884766 27.00927734 C-16.50470602 23.88212955 -14.4454881 20.75178027 -12.38671875 17.62109375 C-11.08102442 15.64043033 -9.77504456 13.6599551 -8.46875 11.6796875 C-7.54213562 10.27032425 -7.54213562 10.27032425 -6.59680176 8.83248901 C-6.0228064 7.96463776 -5.44881104 7.0967865 -4.85742188 6.20263672 C-4.35271362 5.43748749 -3.84800537 4.67233826 -3.32800293 3.88400269 C-2 2 -2 2 0 0 Z " fill="#47677C" transform="translate(185,272)"/>
<path d="M0 0 C0.63502441 0.20898926 1.27004883 0.41797852 1.92431641 0.63330078 C26.22750431 8.80372532 46.03952993 26.9406195 57.8515625 49.54296875 C64.21408519 62.38387955 68.1906405 75.48161438 68.09765625 89.8984375 C68.09553383 91.15087753 68.09553383 91.15087753 68.09336853 92.42861938 C68.08780174 95.07745042 68.07525547 97.7261948 68.0625 100.375 C68.0574807 102.17838419 68.05291855 103.98176971 68.04882812 105.78515625 C68.0378432 110.19013721 68.02060163 114.59505394 68 119 C68.61530075 118.99111755 69.2306015 118.98223511 69.86454773 118.9730835 C76.27215276 118.88454729 82.67958385 118.82423956 89.08764648 118.78027344 C91.47866881 118.76016582 93.86964201 118.7328757 96.26049805 118.69824219 C99.69852831 118.64968849 103.13590804 118.62702226 106.57421875 118.609375 C107.64210129 118.58872986 108.70998383 118.56808472 109.81022644 118.54681396 C117.24432477 118.54456943 117.24432477 118.54456943 121.15161133 120.89941406 C123.58051424 123.65972058 123.9683631 124.58081102 124.25 128.3125 C123.98368917 132.24058469 123.43481646 133.95647943 121 137 C117.89866819 138.942355 115.51087103 139.25097421 111.88341618 139.25447559 C110.3242424 139.26322388 110.3242424 139.26322388 108.73357016 139.27214891 C107.59302048 139.26836958 106.4524708 139.26459026 105.27735901 139.26069641 C104.06465409 139.26452196 102.85194917 139.26834751 101.60249561 139.27228898 C98.23484401 139.2808335 94.86741029 139.28038108 91.4997648 139.27610838 C87.86847361 139.27364554 84.23720829 139.2826498 80.60592651 139.29014587 C73.49135904 139.30290712 66.37682927 139.3046848 59.26225228 139.30234561 C53.48053978 139.30056392 47.69883874 139.30230888 41.91712761 139.30657005 C41.0948309 139.30716524 40.27253418 139.30776043 39.42531938 139.30837366 C37.75492517 139.30958538 36.08453097 139.31079952 34.41413676 139.31201603 C18.74277981 139.32289701 3.07144438 139.32072641 -12.59991378 139.31463119 C-26.94229771 139.30946122 -41.28461374 139.32071857 -55.62698423 139.33972941 C-70.34781299 139.35909257 -85.0686096 139.3673665 -99.78945118 139.36360615 C-108.05646407 139.36169183 -116.32341916 139.36420411 -124.59042168 139.37832069 C-131.6279698 139.39021609 -138.66542453 139.39166013 -145.70297389 139.37953053 C-149.29447942 139.3736289 -152.88581399 139.37257762 -156.47730827 139.38453293 C-160.36841603 139.39733522 -164.25926279 139.38695779 -168.15037537 139.3742218 C-169.28869432 139.38159609 -170.42701328 139.38897037 -171.59982675 139.39656812 C-172.64188369 139.38936158 -173.68394062 139.38215503 -174.75757504 139.37473011 C-175.65572365 139.37478513 -176.55387226 139.37484014 -177.4792375 139.37489682 C-180.59893147 138.91092477 -182.45664966 137.84227031 -185 136 C-186.99788088 133.00317868 -187.35935228 132.05914854 -187.5 128.625 C-187.5515625 127.87476563 -187.603125 127.12453125 -187.65625 126.3515625 C-186.837273 123.41689493 -185.36700442 121.94296739 -183.01055908 120.0637207 C-178.87428825 117.8753558 -174.26119081 118.39851388 -169.6953125 118.51171875 C-168.61619598 118.51879349 -167.53707947 118.52586823 -166.42526245 118.53315735 C-162.99112552 118.56106338 -159.55864106 118.62379831 -156.125 118.6875 C-153.79169027 118.71258761 -151.4583549 118.73539996 -149.125 118.75585938 C-143.41610638 118.81087756 -137.70817127 118.89446684 -132 119 C-132.02094727 118.10506836 -132.04189453 117.21013672 -132.06347656 116.28808594 C-132.71574116 84.12896431 -129.98825459 55.57724656 -108 30 C-107.52046875 29.38769531 -107.0409375 28.77539062 -106.546875 28.14453125 C-95.64288918 14.45188239 -79.36099288 5.47562167 -63 0 C-61.77539062 -0.41507812 -60.55078125 -0.83015625 -59.2890625 -1.2578125 C-40.68932023 -6.85946165 -18.35292962 -6.20789295 0 0 Z " fill="#46667B" transform="translate(286,4)"/>
<path d="M0 0 C0.928125 0.825 1.85625 1.65 2.8125 2.5 C20.88309441 17.8348072 40.63271437 27.17401843 64.5625 27.1875 C65.67947266 27.19974609 66.79644531 27.21199219 67.94726562 27.22460938 C78.74612001 27.24338999 88.8194646 25.97607586 98.875 21.9375 C99.63675537 21.63513428 100.39851074 21.33276855 101.18334961 21.02124023 C112.51677265 16.33224224 122.19943848 9.54446052 131 1 C132.136947 4.41084099 131.83315899 5.47108359 130.92578125 8.8671875 C130.67248047 9.82818359 130.41917969 10.78917969 130.15820312 11.77929688 C129.87912109 12.80087891 129.60003906 13.82246094 129.3125 14.875 C128.89194336 16.44991211 128.89194336 16.44991211 128.46289062 18.05664062 C126.7973928 24.24004061 124.99999896 30.36363961 123.0546875 36.46484375 C121.61286357 41.29762396 120.37657647 46.17752039 119.125 51.0625 C117.2361068 58.4272755 115.23362789 65.7322985 113 73 C110.81154148 80.12353942 108.84581315 87.28017879 107 94.5 C104.94255685 102.54760316 102.68901238 110.50191284 100.25 118.44140625 C98.32935351 124.75353092 96.63411999 131.10820773 95 137.5 C92.94255685 145.54760316 90.68901238 153.50191284 88.25 161.44140625 C86.32935351 167.75353092 84.63411999 174.10820773 83 180.5 C80.94595064 188.53432849 78.70397736 196.47835005 76.25878906 204.40185547 C73.91182621 212.08885272 71.91997059 219.85936061 70.00390625 227.6640625 C69.77058594 228.5921875 69.53726563 229.5203125 69.296875 230.4765625 C69.09416992 231.30236816 68.89146484 232.12817383 68.68261719 232.97900391 C68 235 68 235 66 237 C62.07860275 225.2061007 58.69950677 213.32013058 55.55108643 201.29702759 C53.3302373 192.82900087 50.98108587 184.42084895 48.375 176.0625 C45.73488468 167.59008946 43.39555003 159.07508684 41.1965332 150.47827148 C39.1311793 142.42318563 36.87412816 134.43375315 34.56640625 126.4453125 C32.84186871 120.47348537 31.1702211 114.4872057 29.5 108.5 C27.12113436 99.98076455 24.71252823 91.47081547 22.27392578 82.96850586 C19.97008206 74.92342236 17.71656291 66.86448915 15.46484375 58.8046875 C13.69904004 52.48703423 11.91199333 46.1761159 10.1015625 39.87109375 C8.19158921 33.18618722 6.33180005 26.48694461 4.4609375 19.79101562 C4.1721875 18.75783203 3.8834375 17.72464844 3.5859375 16.66015625 C3.31233398 15.6767627 3.03873047 14.69336914 2.75683594 13.68017578 C2.12526631 11.44360435 1.46240267 9.22024639 0.7890625 6.99609375 C0 4 0 4 0 0 Z " fill="#ECECEC" transform="translate(188,274)"/>
<path d="M0 0 C0.77138587 0.00291284 1.54277174 0.00582568 2.33753294 0.00882679 C3.15101428 0.00797237 3.96449563 0.00711794 4.80262792 0.00623763 C7.54963126 0.00458033 10.29657458 0.01010824 13.04357237 0.01555592 C15.00428606 0.01583776 16.96499985 0.01568011 18.92571348 0.01511341 C24.26640219 0.01482533 29.60706866 0.02072379 34.94775218 0.02768737 C40.52249201 0.03391913 46.0972323 0.03452457 51.67197508 0.03571278 C62.23652976 0.03882662 72.80107416 0.04704072 83.36562431 0.05706227 C95.38960115 0.06822176 107.41357846 0.07373344 119.43755919 0.0787577 C144.17920165 0.0892233 168.92083424 0.1070241 193.66246885 0.12908131 C193.66246885 11.34908131 193.66246885 22.56908131 193.66246885 34.12908131 C197.21383604 34.08267506 200.76520323 34.03626881 204.4241876 33.98845631 C207.86614898 33.95725571 211.30809456 33.93297067 214.75011533 33.90935475 C217.14113766 33.88924713 219.53211086 33.86195701 221.9229669 33.8273235 C225.36099716 33.7787698 228.79837689 33.75610357 232.2366876 33.73845631 C233.30457014 33.71781117 234.37245268 33.69716603 235.47269529 33.67589527 C242.90679362 33.67365074 242.90679362 33.67365074 246.81408018 36.02849537 C249.24298309 38.78880189 249.63083195 39.70989233 249.91246885 43.44158131 C249.64615802 47.369666 249.09728531 49.08556073 246.66246885 52.12908131 C243.56113704 54.07143631 241.17333988 54.38005552 237.54588503 54.3835569 C236.50643584 54.3893891 235.46698665 54.39522129 234.39603901 54.40123022 C233.25548933 54.39745089 232.11493965 54.39367157 230.93982786 54.38977772 C229.72712294 54.39360327 228.51441802 54.39742881 227.26496446 54.40137029 C223.89731286 54.40991481 220.52987914 54.40946239 217.16223365 54.40518969 C213.53094247 54.40272685 209.89967714 54.41173111 206.26839536 54.41922718 C199.15382789 54.43198843 192.03929812 54.43376611 184.92472113 54.43142692 C179.14300863 54.42964523 173.36130759 54.43139019 167.57959646 54.43565136 C166.75729975 54.43624655 165.93500303 54.43684174 165.08778824 54.43745496 C163.41739403 54.43866669 161.74699982 54.43988083 160.07660561 54.44109734 C144.40524867 54.45197832 128.73391323 54.44980772 113.06255507 54.4437125 C98.72017114 54.43854253 84.37785511 54.44979987 70.03548462 54.46881071 C55.31465586 54.48817388 40.59385925 54.49644781 25.87301767 54.49268746 C17.60600478 54.49077314 9.33904969 54.49328542 1.07204717 54.507402 C-5.96550095 54.5192974 -13.00295568 54.52074144 -20.04050504 54.50861184 C-23.63201057 54.50271021 -27.22334513 54.50165893 -30.81483942 54.51361424 C-34.70594717 54.52641652 -38.59679394 54.5160391 -42.48790652 54.50330311 C-43.62622547 54.5106774 -44.76454443 54.51805168 -45.9373579 54.52564943 C-46.97941484 54.51844289 -48.02147177 54.51123634 -49.09510618 54.50381142 C-49.9932548 54.50386643 -50.89140341 54.50392145 -51.81676865 54.50397813 C-54.93646262 54.04000608 -56.79418081 52.97135162 -59.33753115 51.12908131 C-61.33541203 48.13225999 -61.69688343 47.18822984 -61.83753115 43.75408131 C-61.88909365 43.00384693 -61.94065615 42.25361256 -61.99378115 41.48064381 C-61.17480415 38.54597624 -59.70453557 37.0720487 -57.34809023 35.19280201 C-53.2118194 33.00443711 -48.59872196 33.52759519 -44.03284365 33.64080006 C-42.95372713 33.6478748 -41.87461062 33.65494953 -40.7627936 33.66223866 C-37.32865667 33.69014469 -33.89617221 33.75287962 -30.46253115 33.81658131 C-28.12922142 33.84166892 -25.79588605 33.86448127 -23.46253115 33.88494068 C-17.75363753 33.93995887 -12.04570242 34.02354815 -6.33753115 34.12908131 C-6.34276797 33.13465016 -6.34800478 32.140219 -6.35340029 31.11565357 C-6.37145156 27.4387421 -6.38296361 23.76183456 -6.39246279 20.08489186 C-6.39750272 18.49113516 -6.40433465 16.89738312 -6.4129706 15.30364186 C-6.42505113 13.01757878 -6.4307627 10.73157664 -6.4351874 8.44548756 C-6.44034868 7.72881413 -6.44550997 7.0121407 -6.45082766 6.27374989 C-6.45102378 4.55844458 -6.39945122 2.84326865 -6.33753115 1.12908131 C-4.59361116 -0.61483868 -2.32390817 0.00665579 0 0 Z " fill="#47677C" transform="translate(160.33753114938736,88.8709186911583)"/>
<path d="M0 0 C0.77138587 0.00291284 1.54277174 0.00582568 2.33753294 0.00882679 C3.15101428 0.00797237 3.96449563 0.00711794 4.80262792 0.00623763 C7.54963126 0.00458033 10.29657458 0.01010824 13.04357237 0.01555592 C15.00428606 0.01583776 16.96499985 0.01568011 18.92571348 0.01511341 C24.26640219 0.01482533 29.60706866 0.02072379 34.94775218 0.02768737 C40.52249201 0.03391913 46.0972323 0.03452457 51.67197508 0.03571278 C62.23652976 0.03882662 72.80107416 0.04704072 83.36562431 0.05706227 C95.38960115 0.06822176 107.41357846 0.07373344 119.43755919 0.0787577 C144.17920165 0.0892233 168.92083424 0.1070241 193.66246885 0.12908131 C193.66246885 6.72908131 193.66246885 13.32908131 193.66246885 20.12908131 C127.66246885 20.12908131 61.66246885 20.12908131 -6.33753115 20.12908131 C-6.33753115 0.018151 -6.33753115 0.018151 0 0 Z " fill="#E5E7E8" transform="translate(160.33753114938736,88.8709186911583)"/>
<path d="M0 0 C1.26694275 -0.00807831 1.26694275 -0.00807831 2.55948031 -0.01631981 C5.38840424 -0.03062205 8.21686174 -0.02349006 11.04580688 -0.01637268 C13.07457353 -0.0220751 15.10333697 -0.02903886 17.13209534 -0.03717041 C22.64247027 -0.0551321 28.15268622 -0.05392762 33.66308165 -0.04822803 C38.263027 -0.0451402 42.86294165 -0.05122418 47.46288264 -0.05726677 C58.31525701 -0.07132059 69.16755268 -0.06974386 80.01992798 -0.05836487 C91.21542922 -0.04688548 102.41069086 -0.06095446 113.60616052 -0.08776134 C123.21819794 -0.10991502 132.83016014 -0.11655638 142.44222128 -0.11068493 C148.18302942 -0.10731305 153.923684 -0.10974579 159.66447067 -0.12693596 C165.06374516 -0.14239735 170.4626647 -0.13845825 175.86192513 -0.11963081 C177.84243387 -0.11594258 179.82296887 -0.1190602 181.80345345 -0.1295166 C184.50959638 -0.14271226 187.21456182 -0.1311917 189.9206543 -0.11352539 C190.70228011 -0.1231304 191.48390591 -0.1327354 192.28921735 -0.14263147 C198.55490577 -0.05861469 202.68439197 1.82088867 207.44277954 6.02830505 C215.90233851 16.24923847 217.720713 26.36745195 216.58731079 39.38768005 C214.63263098 48.14464562 209.52920357 55.57457702 202.21231079 60.70018005 C197.38456729 63.69305482 192.37686338 66.38768005 186.58731079 66.38768005 C186.58731079 44.93768005 186.58731079 23.48768005 186.58731079 1.38768005 C126.19731079 1.38768005 65.80731079 1.38768005 3.58731079 1.38768005 C3.58731079 22.83768005 3.58731079 44.28768005 3.58731079 66.38768005 C-7.09850971 64.01305328 -15.2737819 59.70188425 -21.41268921 50.38768005 C-26.75028312 40.43332486 -28.08224181 30.28460196 -24.97518921 19.32518005 C-20.75910408 7.76106085 -12.39274168 -0.09474895 0 0 Z " fill="#E9C1A5" transform="translate(159.41268920898438,141.61231994628906)"/>
</svg>
